<mxfile host="app.diagrams.net" modified="2023-12-26T18:35:05.252Z" agent="Mozilla/5.0 (Windows NT 10.0; Win64; x64) AppleWebKit/537.36 (KHTML, like Gecko) Chrome/120.0.0.0 Safari/537.36" version="22.1.11" etag="u6bkCfyK0l01V85x6opz" type="github">
  <diagram name="PaginÄƒ-1" id="e-kSMlQygBdRhabFYkxA">
    <mxGraphModel>
      <root>
        <mxCell id="0" />
        <mxCell id="1" parent="0" />
      </root>
    </mxGraphModel>
  </diagram>
</mxfile>
